<svg xmlns="http://www.w3.org/2000/svg" width="329.084" height="73.593" viewBox="0 0 329.084 73.593"><path d="M6.937,4.8V-30.024H.673v-5.809H18.5a64.179,64.179,0,0,1,11.385.768,19.466,19.466,0,0,1,7.739,3.472,18.915,18.915,0,0,1,5.982,7.428A24.862,24.862,0,0,1,45.847-13.4,30.428,30.428,0,0,1,43.693-1.448,17.355,17.355,0,0,1,38.042,6.13a21.477,21.477,0,0,1-8.319,3.489,63.113,63.113,0,0,1-12.28.985H.673V4.8Zm6.96,0h3.646A47.942,47.942,0,0,0,27.2,4.027,15.12,15.12,0,0,0,33.22,1.407,12.9,12.9,0,0,0,37.2-4.185,23.259,23.259,0,0,0,38.721-13a19.713,19.713,0,0,0-2.5-10.249,11.743,11.743,0,0,0-6.4-5.492q-3.894-1.285-11.981-1.285H13.9ZM51.647,10.6V-6.255h5.767v4.106q4.143,7.578,10.838,7.578a8.343,8.343,0,0,0,5.767-2.1,7.036,7.036,0,0,0,2.353-5.508q0-3.3-1.922-4.757T67.192-9.827a52.826,52.826,0,0,1-9.181-3.155,11.8,11.8,0,0,1-4.756-4.24,11.792,11.792,0,0,1-1.773-6.526,11.958,11.958,0,0,1,3.861-9.331,13.917,13.917,0,0,1,9.694-3.489,16.625,16.625,0,0,1,10.274,3.605v-3.1h5.634v14.088H75.312v-3.238a11.117,11.117,0,0,0-9.777-5.375,8.6,8.6,0,0,0-5.8,1.753,5.369,5.369,0,0,0-2.022,4.19,5.459,5.459,0,0,0,1.027,3.288,6.088,6.088,0,0,0,2.618,2.086,54.337,54.337,0,0,0,6.265,1.866,48.775,48.775,0,0,1,8.85,2.984A11.991,11.991,0,0,1,81.212-9.8,13.944,13.944,0,0,1,83.2-2.353,12.835,12.835,0,0,1,79.04,7.465a14.528,14.528,0,0,1-10.291,3.874A16.433,16.433,0,0,1,57.414,6.765V10.6ZM92.48,4.8V-30.024h-5.8v-5.809h16.472A42.389,42.389,0,0,1,114.023-34.8a10.822,10.822,0,0,1,6.049,4.69,15.2,15.2,0,0,1,2.436,8.63A15.474,15.474,0,0,1,120.9-14.35a11.51,11.51,0,0,1-3.977,4.657,14.512,14.512,0,0,1-5.336,2.02,56.792,56.792,0,0,1-8.965.517H99.44V4.8h5.966V10.6H86.68V4.8Zm6.96-17.56h3.977q6.794,0,9.413-1.953t2.618-6.894a9.134,9.134,0,0,0-1.392-5.208,6.09,6.09,0,0,0-3.447-2.637,28.866,28.866,0,0,0-6.861-.568H99.44Z" transform="translate(-0.673 49.453)" fill="#fff" opacity="0.96"/><g transform="translate(137.504)" opacity="0.96"><path d="M1.769,213.782,10.06,210l23.065,10.531a8.171,8.171,0,0,0,6.81,0L63,210l8.289,3.785a3.218,3.218,0,0,1,0,5.749L38.048,234.708a3.641,3.641,0,0,1-3.038,0L1.769,219.531A3.218,3.218,0,0,1,1.769,213.782Z" transform="translate(0.002 -179.816)" fill="#fff" opacity="0.4"/><path d="M1.769,21.275,35.009,36.468a3.631,3.631,0,0,0,3.038,0L71.288,21.275a3.218,3.218,0,0,0,0-5.749L38.049.336a3.631,3.631,0,0,0-3.038,0L1.769,15.526A3.218,3.218,0,0,0,1.769,21.275ZM71.29,52.337l-8.258-3.77-23.1,10.546a8.171,8.171,0,0,1-6.81,0l-23.1-10.546-8.26,3.77a3.218,3.218,0,0,0,0,5.749L35.009,73.264a3.64,3.64,0,0,0,3.038,0L71.3,58.087a3.221,3.221,0,0,0-.007-5.749Z" transform="translate(0.002 -0.003)" fill="#fff"/></g><path d="M6.724,4.63V-30.189H.958V-36h18.66v5.809H13.685V4.63h5.3v5.809H.958V4.63Zm7.192-18.711L28.7-30.189h-5.27V-36H41.492v5.809H36.587L22.393-14.081,36.984,4.63h4.938v5.809H23.2V4.63h4.972ZM49.281,4.63V-30.189H44.309V-36h16.9v5.809H56.241V4.63h4.972v5.809h-16.9V4.63Zm30.127,0V-30.189H69.9v11.851H64.2V-36h37.353v17.66h-5.7V-30.189H86.368V4.63h6v5.809H73.508V4.63Z" transform="translate(227.536 50.173)" fill="#fff" opacity="0.96"/></svg>