<svg id="Footer_Info" data-name="Footer Info" xmlns="http://www.w3.org/2000/svg" width="1366" height="504" viewBox="0 0 1366 504">
  <rect id="Background_STYLE:STYLE3_" data-name="Background [STYLE:STYLE3]" width="1366" height="504" fill="#d0d0d0"/>
  <text id="Description_STYLE:STYLE3_TAG:P_" data-name="Description [STYLE:STYLE3][TAG:P]" transform="translate(143 187)" fill="#737373" font-size="16" font-family="NotoSans-Medium, Noto Sans" font-weight="500"><tspan x="0" y="17">Lorem ipsum dolor sit amet, consectetur </tspan><tspan x="0" y="43">adipiscing elit, sed do eiusmod tempor </tspan><tspan x="0" y="69">incididunt ut labore et dolore magna aliqua.</tspan></text>
  <text id="Company_STYLE:STYLE3_TAG:H4_" data-name="Company [STYLE:STYLE3][TAG:H4]" transform="translate(143 162)" fill="#3d3d3d" font-size="32" font-family="NotoSans-Bold, Noto Sans" font-weight="700"><tspan x="0" y="0">Mockup Company</tspan></text>
  <g id="Circle_Button_" data-name="Circle Button " transform="translate(271 322)">
    <rect id="Area_SIZE:MEDIUM_STATE:DEFAULT_STYLE:STYLE3_" data-name="Area [SIZE:MEDIUM][STATE:DEFAULT][STYLE:STYLE3]" width="48" height="48" rx="24" fill="rgba(252,252,252,0)"/>
    <g id="Icon_" data-name="Icon " transform="translate(14 14)">
      <rect id="Area_ICON:feather_linkedin_SIZE:MEDIUM_STATE:DEFAULT_STYLE:STYLE3_" data-name="Area [ICON:feather/linkedin][SIZE:MEDIUM][STATE:DEFAULT][STYLE:STYLE3]" width="20" height="20" fill="rgba(253,73,198,0.35)" opacity="0"/>
      <g id="Icon" transform="translate(1.667 1.667)">
        <path id="Path" d="M13.333,6.667a5,5,0,0,1,5,5V17.5H15V11.667a1.667,1.667,0,1,0-3.333,0V17.5H8.333V11.667A5,5,0,0,1,13.333,6.667Z" transform="translate(-1.667 -1.667)" fill="none" stroke="#3f3f3f" stroke-linecap="round" stroke-linejoin="round" stroke-width="1.667"/>
        <rect id="Rect" width="3.333" height="10" transform="translate(0 5.833)" fill="none" stroke="#3f3f3f" stroke-linecap="round" stroke-linejoin="round" stroke-width="1.667"/>
        <circle id="Path-2" data-name="Path" cx="1.667" cy="1.667" r="1.667" transform="translate(0 0)" fill="none" stroke="#3f3f3f" stroke-linecap="round" stroke-linejoin="round" stroke-width="1.667"/>
      </g>
    </g>
  </g>
  <g id="Circle_Button_2" data-name="Circle Button " transform="translate(335 322)">
    <rect id="Area_SIZE:MEDIUM_STATE:DEFAULT_STYLE:STYLE3_2" data-name="Area [SIZE:MEDIUM][STATE:DEFAULT][STYLE:STYLE3]" width="48" height="48" rx="24" fill="rgba(252,252,252,0)"/>
    <g id="Icon_2" data-name="Icon " transform="translate(14 14)">
      <rect id="Area_ICON:feather_youtube_SIZE:MEDIUM_STATE:DEFAULT_STYLE:STYLE3_" data-name="Area [ICON:feather/youtube][SIZE:MEDIUM][STATE:DEFAULT][STYLE:STYLE3]" width="20" height="20" fill="rgba(253,73,198,0.35)" opacity="0"/>
      <g id="Icon-2" data-name="Icon" transform="translate(1.667 1.667)">
        <path id="Path-3" data-name="Path" d="M18.783,5.35a2.316,2.316,0,0,0-1.616-1.667A60.022,60.022,0,0,0,10,3.333a54.752,54.752,0,0,0-7.167.384A2.315,2.315,0,0,0,1.217,5.383,24.145,24.145,0,0,0,.833,9.792a24.132,24.132,0,0,0,.384,4.441,2.316,2.316,0,0,0,1.616,1.6A54.752,54.752,0,0,0,10,16.217a54.752,54.752,0,0,0,7.167-.384,2.315,2.315,0,0,0,1.616-1.666,24.131,24.131,0,0,0,.384-4.375A24.143,24.143,0,0,0,18.783,5.35Z" transform="translate(-1.667 -1.667)" fill="none" stroke="#3f3f3f" stroke-linecap="round" stroke-linejoin="round" stroke-width="1.667"/>
        <path id="Path-4" data-name="Path" d="M8.125,12.517l4.792-2.725L8.125,7.067Z" transform="translate(-1.667 -1.667)" fill="none" stroke="#3f3f3f" stroke-linecap="round" stroke-linejoin="round" stroke-width="1.667"/>
      </g>
    </g>
  </g>
  <g id="Circle_Button_3" data-name="Circle Button " transform="translate(207 322)">
    <rect id="Area_SIZE:MEDIUM_STATE:DEFAULT_STYLE:STYLE3_3" data-name="Area [SIZE:MEDIUM][STATE:DEFAULT][STYLE:STYLE3]" width="48" height="48" rx="24" fill="rgba(252,252,252,0)"/>
    <g id="Icon_3" data-name="Icon " transform="translate(14 14)">
      <rect id="Area_ICON:feather_twitter_SIZE:MEDIUM_STATE:DEFAULT_STYLE:STYLE3_" data-name="Area [ICON:feather/twitter][SIZE:MEDIUM][STATE:DEFAULT][STYLE:STYLE3]" width="20" height="20" fill="rgba(253,73,198,0.35)" opacity="0"/>
      <g id="Icon-3" data-name="Icon" transform="translate(0.833 2.491)">
        <path id="Path-5" data-name="Path" d="M19.167,2.5A9.094,9.094,0,0,1,16.55,3.775,3.733,3.733,0,0,0,10,6.275v.833A8.884,8.884,0,0,1,2.5,3.333s-3.333,7.5,4.167,10.834A9.7,9.7,0,0,1,.833,15.833C8.333,20,17.5,15.833,17.5,6.25a3.739,3.739,0,0,0-.067-.692A6.427,6.427,0,0,0,19.167,2.5Z" transform="translate(-0.833 -2.491)" fill="none" stroke="#3f3f3f" stroke-linecap="round" stroke-linejoin="round" stroke-width="1.667"/>
      </g>
    </g>
  </g>
  <g id="Circle_Button_4" data-name="Circle Button " transform="translate(143 322)">
    <rect id="Area_SIZE:MEDIUM_STATE:DEFAULT_STYLE:STYLE3_4" data-name="Area [SIZE:MEDIUM][STATE:DEFAULT][STYLE:STYLE3]" width="48" height="48" rx="24" fill="rgba(252,252,252,0)"/>
    <g id="Icon_4" data-name="Icon " transform="translate(14 14)">
      <rect id="Area_ICON:feather_facebook_SIZE:MEDIUM_STATE:DEFAULT_STYLE:STYLE3_" data-name="Area [ICON:feather/facebook][SIZE:MEDIUM][STATE:DEFAULT][STYLE:STYLE3]" width="20" height="20" fill="rgba(253,73,198,0.35)" opacity="0"/>
      <g id="Icon-4" data-name="Icon" transform="translate(5.833 1.667)">
        <path id="Path-6" data-name="Path" d="M15,1.667H12.5A4.167,4.167,0,0,0,8.333,5.833v2.5h-2.5v3.334h2.5v6.666h3.334V11.667h2.5L15,8.333H11.667v-2.5A.833.833,0,0,1,12.5,5H15Z" transform="translate(-5.833 -1.667)" fill="none" stroke="#3f3f3f" stroke-linecap="round" stroke-linejoin="round" stroke-width="1.667"/>
      </g>
    </g>
  </g>
  <g id="Circle_Button_5" data-name="Circle Button " transform="translate(399 322)">
    <rect id="Area_SIZE:MEDIUM_STATE:DEFAULT_STYLE:STYLE3_5" data-name="Area [SIZE:MEDIUM][STATE:DEFAULT][STYLE:STYLE3]" width="48" height="48" rx="24" fill="rgba(252,252,252,0)"/>
    <g id="Icon_5" data-name="Icon " transform="translate(14 14)">
      <rect id="Area_ICON:feather_phone_SIZE:MEDIUM_STATE:DEFAULT_STYLE:STYLE3_" data-name="Area [ICON:feather/phone][SIZE:MEDIUM][STATE:DEFAULT][STYLE:STYLE3]" width="20" height="20" fill="rgba(253,73,198,0.35)" opacity="0"/>
      <g id="Icon-5" data-name="Icon" transform="translate(1.667 3.333)">
        <path id="Path-7" data-name="Path" d="M18.333,14.1v2.5a1.667,1.667,0,0,1-1.816,1.667,16.488,16.488,0,0,1-7.192-2.559,16.24,16.24,0,0,1-5-5A16.488,16.488,0,0,1,1.767,3.483,1.667,1.667,0,0,1,3.425,1.667h2.5A1.666,1.666,0,0,1,7.592,3.1a10.68,10.68,0,0,0,.583,2.342A1.665,1.665,0,0,1,7.8,7.2L6.742,8.258a13.319,13.319,0,0,0,5,5L12.8,12.2a1.665,1.665,0,0,1,1.758-.375,10.68,10.68,0,0,0,2.342.583A1.667,1.667,0,0,1,18.333,14.1Z" transform="translate(-1.667 -3.333)" fill="none" stroke="#3f3f3f" stroke-linecap="round" stroke-linejoin="round" stroke-width="1.667"/>
      </g>
    </g>
  </g>
  <text id="Service_STYLE:STYLE3_TAG:UI_L_" data-name="Service [STYLE:STYLE3][TAG:UI_L]" transform="translate(918 365)" fill="#3d3d3d" font-size="18" font-family="NotoSans-SemiBold, Noto Sans" font-weight="600"><tspan x="-38.853" y="0">Service 4</tspan></text>
  <text id="Service_STYLE:STYLE3_TAG:UI_L_2" data-name="Service [STYLE:STYLE3][TAG:UI_L]" transform="translate(918 317)" fill="#3d3d3d" font-size="18" font-family="NotoSans-SemiBold, Noto Sans" font-weight="600"><tspan x="-38.853" y="0">Service 3</tspan></text>
  <text id="Service_STYLE:STYLE3_TAG:UI_L_3" data-name="Service [STYLE:STYLE3][TAG:UI_L]" transform="translate(918 269)" fill="#3d3d3d" font-size="18" font-family="NotoSans-SemiBold, Noto Sans" font-weight="600"><tspan x="-38.853" y="0">Service 2</tspan></text>
  <text id="Service_STYLE:STYLE3_TAG:UI_L_4" data-name="Service [STYLE:STYLE3][TAG:UI_L]" transform="translate(918 221)" fill="#3d3d3d" font-size="18" font-family="NotoSans-SemiBold, Noto Sans" font-weight="600"><tspan x="-38.853" y="0">Service 1</tspan></text>
  <text id="Services_STYLE:STYLE3_TAG:H5_" data-name="Services [STYLE:STYLE3][TAG:H5]" transform="translate(879 159)" fill="#3d3d3d" font-size="24" font-family="NotoSans-Bold, Noto Sans" font-weight="700"><tspan x="0" y="0">Services</tspan></text>
  <text id="Product_STYLE:STYLE3_TAG:UI_L_" data-name="Product [STYLE:STYLE3][TAG:UI_L]" transform="translate(737 365)" fill="#3d3d3d" font-size="18" font-family="NotoSans-SemiBold, Noto Sans" font-weight="600"><tspan x="-41.931" y="0">Product 4</tspan></text>
  <text id="Product_STYLE:STYLE3_TAG:UI_L_2" data-name="Product [STYLE:STYLE3][TAG:UI_L]" transform="translate(737 317)" fill="#3d3d3d" font-size="18" font-family="NotoSans-SemiBold, Noto Sans" font-weight="600"><tspan x="-41.931" y="0">Product 3</tspan></text>
  <text id="Product_STYLE:STYLE3_TAG:UI_L_3" data-name="Product [STYLE:STYLE3][TAG:UI_L]" transform="translate(737 269)" fill="#3d3d3d" font-size="18" font-family="NotoSans-SemiBold, Noto Sans" font-weight="600"><tspan x="-41.931" y="0">Product 2</tspan></text>
  <text id="Product_STYLE:STYLE3_TAG:UI_L_4" data-name="Product [STYLE:STYLE3][TAG:UI_L]" transform="translate(737 221)" fill="#3d3d3d" font-size="18" font-family="NotoSans-SemiBold, Noto Sans" font-weight="600"><tspan x="-41.931" y="0">Product 1</tspan></text>
  <text id="Products_STYLE:STYLE3_TAG:H5_" data-name="Products [STYLE:STYLE3][TAG:H5]" transform="translate(695 159)" fill="#3d3d3d" font-size="24" font-family="NotoSans-Bold, Noto Sans" font-weight="700"><tspan x="0" y="0">Products</tspan></text>
  <text id="Resource_STYLE:STYLE3_TAG:UI_L_" data-name="Resource [STYLE:STYLE3][TAG:UI_L]" transform="translate(1085 365)" fill="#3d3d3d" font-size="18" font-family="NotoSans-SemiBold, Noto Sans" font-weight="600"><tspan x="-22.041" y="0">FAQs</tspan></text>
  <text id="Resource_STYLE:STYLE3_TAG:UI_L_2" data-name="Resource [STYLE:STYLE3][TAG:UI_L]" transform="translate(1092 317)" fill="#3d3d3d" font-size="18" font-family="NotoSans-SemiBold, Noto Sans" font-weight="600"><tspan x="-29.061" y="0">Videos</tspan></text>
  <text id="Resource_STYLE:STYLE3_TAG:UI_L_3" data-name="Resource [STYLE:STYLE3][TAG:UI_L]" transform="translate(1083 269)" fill="#3d3d3d" font-size="18" font-family="NotoSans-SemiBold, Noto Sans" font-weight="600"><tspan x="-19.719" y="0">Blog</tspan></text>
  <text id="Resource_STYLE:STYLE3_TAG:UI_L_4" data-name="Resource [STYLE:STYLE3][TAG:UI_L]" transform="translate(1087 221)" fill="#3d3d3d" font-size="18" font-family="NotoSans-SemiBold, Noto Sans" font-weight="600"><tspan x="-24.066" y="0">News</tspan></text>
  <text id="Resources_STYLE:STYLE3_TAG:H5_" data-name="Resources [STYLE:STYLE3][TAG:H5]" transform="translate(1063 159)" fill="#3d3d3d" font-size="24" font-family="NotoSans-Bold, Noto Sans" font-weight="700"><tspan x="0" y="0">Resources</tspan></text>
</svg>
