<svg id="landing-bg" xmlns="http://www.w3.org/2000/svg" width="1627.5" height="484.018" viewBox="0 0 1627.5 484.018">
  <path id="Union_1" data-name="Union 1" d="M0,353.915V313.067l.424-.01V0H1626.5V313.124h-3.148c.36,7.657.979,13.065,2.026,12.013,3.13-3.142-79.119,86.909-226.233,101.048s-305.183-56.56-505.507-64.415S622.885,435.613,394.39,476.462a417.905,417.905,0,0,1-73.7,6.556C131.089,483.007,0,353.915,0,353.915Z" transform="translate(1 1)" fill="#1f2e48"/>
  <path id="Union_12" data-name="Union 12" d="M0,139.437v44.118l.424.011V483.018H1626.5V169.893h-1.642c-7.7-8.683-88.485-94.267-225.713-108.513-147.114-15.272-305.183,61.087-505.508,69.572S622.886,51.2,394.39,7.081A387.816,387.816,0,0,0,320.685,0C131.088.011,0,139.437,0,139.437Z" transform="translate(1627.5 484.018) rotate(180)" fill="#1f2e48" opacity="0.56"/>
  <path id="Union_8" data-name="Union 8" d="M.424,0V188.22L0,188.227v27.731S165.1,374.029,393.6,346.3s299.715-130.34,500.04-125.007,358.394,53.328,505.508,43.729c137.219-8.953,218.006-62.741,225.712-68.205h1.642V0Z" transform="translate(0 0)" fill="#fff" opacity="0.03"/>
  <path id="Union_10" data-name="Union 10" d="M.424,432.562V199.651L0,199.642V165.327S165.1-30.276,393.6,4.039s299.715,161.287,500.04,154.688,358.394-65.991,505.508-54.112c137.219,11.079,218.006,77.638,225.712,84.4h1.642V432.562Z" transform="translate(1626.5 432.562) rotate(180)" fill="#fff" opacity="0.03"/>
  <g id="Component_1" data-name="Component 1" transform="translate(1 0.816)" opacity="0.22" style="isolation: isolate">
    <path id="wave" d="M0,220.854l54.183-3.464c54.183-3.725,162.55-10.261,270.917-27.906s216.733-45.094,325.1-38.363c108.367,6.993,216.733,48.819,325.1,66.269,108.367,17.188,216.733,10.653,325.1-3.529,108.367-13.92,216.733-34.833,270.917-45.29l54.183-10.457V53.549H0Z" transform="translate(0 -39.487)" fill="#0366d6" opacity="0.6"/>
    <path id="wave-2" data-name="wave" d="M0,360.434l54.183-6.353c54.183-6.833,162.55-18.821,270.917-51.188s216.733-82.715,325.1-70.368c108.367,12.827,216.733,89.548,325.1,121.555,108.367,31.528,216.733,19.54,325.1-6.473,108.367-25.534,216.733-63.895,270.917-83.075l54.183-19.18V53.549H0Z" transform="translate(0 -52.036)" fill="#0366d6" opacity="0.6"/>
    <path id="wave-3" data-name="wave" d="M0,403.2l54.183-7.239c54.183-7.785,162.55-21.444,270.917-58.321S541.833,243.4,650.2,257.467c108.367,14.614,216.733,102.027,325.1,138.5,108.367,35.921,216.733,22.263,325.1-7.376,108.367-29.092,216.733-72.8,270.917-94.652l54.183-21.853V53.549H0Z" transform="translate(0 -53.549)" fill="#1f2e48" opacity="0.6"/>
  </g>
</svg>
