<svg id="atoms-sections" xmlns="http://www.w3.org/2000/svg" width="428" height="433" viewBox="0 0 428 433">
  <rect id="Rectangle_458" data-name="Rectangle 458" width="428" height="433" rx="7" fill="#fff"/>
  <text id="Define_color_size_shape_spacing_padding_interaction_etc_it_is_gives_a_voice_and_language_to_the_system." data-name="Define color, size, shape, spacing, padding, interaction etc it is gives a voice and language to the system." transform="translate(33 257)" fill="#707070" font-size="18" font-family="Roboto-Medium, Roboto" font-weight="500" letter-spacing="0.006em"><tspan x="0" y="17">Define color, size, shape, spacing, padding, </tspan><tspan x="0" y="44">interaction etc it is gives a voice and </tspan><tspan x="0" y="71">language to the system.</tspan></text>
  <text id="Tokens" transform="translate(33 227)" fill="#00558c" font-size="28" font-family="Roboto-Medium, Roboto" font-weight="500" letter-spacing="0.006em"><tspan x="0" y="0">TOKENS</tspan></text>
  <g id="ic_grain_48px" transform="translate(47 57)">
    <g id="Group_314" data-name="Group 314" transform="translate(8 8)">
      <path id="Path_87" data-name="Path 87" d="M36.5,46A9.5,9.5,0,1,0,46,55.5,9.5,9.5,0,0,0,36.5,46Zm-19-19A9.5,9.5,0,1,0,27,36.5,9.5,9.5,0,0,0,17.5,27Zm0,38A9.5,9.5,0,1,0,27,74.5,9.5,9.5,0,0,0,17.5,65Zm57-38A9.5,9.5,0,1,0,65,17.5,9.5,9.5,0,0,0,74.5,27Zm-19,38A9.5,9.5,0,1,0,65,74.5,9.5,9.5,0,0,0,55.5,65Zm19-19A9.5,9.5,0,1,0,84,55.5,9.5,9.5,0,0,0,74.5,46Zm-19-19A9.5,9.5,0,1,0,65,36.5,9.5,9.5,0,0,0,55.5,27ZM36.5,8A9.5,9.5,0,1,0,46,17.5,9.5,9.5,0,0,0,36.5,8Z" transform="translate(-8 -8)" fill="#00558c"/>
    </g>
  </g>
  <g id="long-arrow-right" transform="translate(364.54 255.961)">
    <g id="Group_315" data-name="Group 315" transform="translate(0 112.202)">
      <path id="Path_88" data-name="Path 88" d="M19.969,112.439l-1.326,1.326a.811.811,0,0,0,.012,1.158l5.455,5.238H.811a.811.811,0,0,0-.811.811v1.892a.811.811,0,0,0,.811.811h23.3l-5.454,5.238a.811.811,0,0,0-.012,1.158l1.326,1.326a.811.811,0,0,0,1.147,0l8.906-8.906a.811.811,0,0,0,0-1.147l-8.906-8.906A.811.811,0,0,0,19.969,112.439Z" transform="translate(0 -112.202)" fill="#00558c"/>
    </g>
  </g>
</svg>
