<svg xmlns="http://www.w3.org/2000/svg" width="110.954" height="25.049" viewBox="0 0 110.954 25.049"><path d="M2.785-22.488V-34.34H.673v-1.977H6.685a21.438,21.438,0,0,1,3.838.261,6.533,6.533,0,0,1,2.609,1.182,6.427,6.427,0,0,1,2.017,2.528,8.531,8.531,0,0,1,.754,3.665,10.444,10.444,0,0,1-.726,4.068,5.9,5.9,0,0,1-1.905,2.579,7.205,7.205,0,0,1-2.8,1.187,21.083,21.083,0,0,1-4.14.335H.673v-1.977Zm2.347,0H6.361a16.015,16.015,0,0,0,3.257-.261,5.074,5.074,0,0,0,2.028-.892,4.388,4.388,0,0,0,1.341-1.9,7.984,7.984,0,0,0,.514-3,6.761,6.761,0,0,0-.844-3.488A3.969,3.969,0,0,0,10.5-33.9a13.745,13.745,0,0,0-4.04-.437H5.132Zm12.728,1.977v-5.738H19.8v1.4q1.4,2.579,3.654,2.579a2.8,2.8,0,0,0,1.944-.716,2.406,2.406,0,0,0,.793-1.875,1.908,1.908,0,0,0-.648-1.619,7.74,7.74,0,0,0-2.447-.983,17.7,17.7,0,0,1-3.1-1.074,3.993,3.993,0,0,1-1.6-1.443,4.043,4.043,0,0,1-.6-2.221,4.089,4.089,0,0,1,1.3-3.176,4.666,4.666,0,0,1,3.269-1.187,5.572,5.572,0,0,1,3.464,1.227V-36.4h1.9v4.8h-1.9v-1.1a3.74,3.74,0,0,0-3.3-1.829,2.88,2.88,0,0,0-1.956.6A1.834,1.834,0,0,0,19.9-32.51a1.871,1.871,0,0,0,.346,1.119,2.056,2.056,0,0,0,.883.71,18.192,18.192,0,0,0,2.112.635A16.339,16.339,0,0,1,26.23-29.03a4.06,4.06,0,0,1,1.6,1.574,4.781,4.781,0,0,1,.67,2.535,4.389,4.389,0,0,1-1.4,3.342,4.872,4.872,0,0,1-3.47,1.318A5.513,5.513,0,0,1,19.8-21.818v1.307Zm13.767-1.977V-34.34H29.671v-1.977h5.554a14.162,14.162,0,0,1,3.665.352,3.653,3.653,0,0,1,2.039,1.6,5.209,5.209,0,0,1,.821,2.937A5.309,5.309,0,0,1,41.209-29a3.907,3.907,0,0,1-1.341,1.585,4.865,4.865,0,0,1-1.8.687,18.97,18.97,0,0,1-3.023.176H33.973v4.068h2.011v1.977H29.671v-1.977Zm2.347-5.977h1.341a5.518,5.518,0,0,0,3.174-.665,2.763,2.763,0,0,0,.883-2.346,3.131,3.131,0,0,0-.469-1.773,2.056,2.056,0,0,0-1.162-.9,9.644,9.644,0,0,0-2.313-.193H33.973Z" transform="translate(-0.673 40.953)" fill="#3636f3" opacity="0.96"/><g transform="translate(46.361)" opacity="0.96"><path d="M.595,211.287,3.39,210l7.777,3.585a2.731,2.731,0,0,0,2.3,0L21.24,210l2.795,1.288a1.1,1.1,0,0,1,0,1.957L12.827,218.41a1.217,1.217,0,0,1-1.024,0L.595,213.244A1.1,1.1,0,0,1,.595,211.287Z" transform="translate(0.002 -199.726)" fill="#3636f3" opacity="0.4"/><path d="M.595,7.243,11.8,12.415a1.214,1.214,0,0,0,1.024,0L24.034,7.243a1.1,1.1,0,0,0,0-1.957L12.827.116a1.214,1.214,0,0,0-1.024,0L.595,5.286A1.1,1.1,0,0,0,.595,7.243Zm23.44,10.573L21.25,16.533l-7.788,3.59a2.731,2.731,0,0,1-2.3,0l-7.787-3.59L.595,17.816a1.1,1.1,0,0,0,0,1.957L11.8,24.939a1.217,1.217,0,0,0,1.024,0l11.21-5.166A1.1,1.1,0,0,0,24.034,17.816Z" transform="translate(0.002 -0.003)" fill="#3636f3"/></g><path d="M2.9-22.169V-34.02H.958V-36H7.249v1.977h-2v11.852H7.037v1.977H.958v-1.977Zm2.425-6.369,4.984-5.483H8.534V-36h6.09v1.977H12.97L8.185-28.538l4.92,6.369h1.665v1.977H8.456v-1.977h1.676ZM17.25-22.169V-34.02H15.574V-36h5.7v1.977H19.6v11.852h1.676v1.977h-5.7v-1.977Zm10.158,0V-34.02H24.2v4.034H22.279V-36H34.873v6.011H32.951V-34.02h-3.2v11.852h2.023v1.977H25.419v-1.977Z" transform="translate(76.082 40.823)" fill="#3636f3" opacity="0.96"/></svg>